<svg width="44" height="44" viewBox="0 0 44 44" fill="none" xmlns="http://www.w3.org/2000/svg">
<g clip-path="url(#clip0_1587_33255)">
<path d="M43.2197 12.2206L29.5378 6.91596C29.206 6.78739 28.8347 6.95658 28.7082 7.29361C28.5818 7.63099 28.7482 8.00864 29.0799 8.13721L41.1869 12.8312L32.8057 16.0811L22.265 11.2276C21.9415 11.0786 21.5609 11.2246 21.4147 11.5532C21.2681 11.8822 21.4117 12.2693 21.7349 12.4183L31.114 16.737L22 20.2705L2.813 12.8312L22 5.39191L26.7283 7.22547C27.0594 7.3537 27.4311 7.18485 27.5578 6.84748C27.6843 6.51044 27.5179 6.13279 27.1861 6.00422L22.2291 4.08204C22.0815 4.02497 21.9184 4.02463 21.7709 4.08204L0.780252 12.2206C0.531357 12.3173 0.366638 12.5603 0.366638 12.8312V15.8155C0.366638 16.0864 0.531357 16.3295 0.780252 16.4262L7.33502 18.9674V21.2319C7.33502 21.5928 7.62253 21.8855 7.97739 21.8855C8.33257 21.8855 8.62009 21.5928 8.62009 21.2319V19.4659L21.7709 24.5647C21.8448 24.5932 21.9224 24.6077 22 24.6077C22.0775 24.6077 22.1551 24.5932 22.2291 24.5647L32.1419 20.7214V31.0634C29.0297 32.7247 25.5399 33.615 22 33.615C17.1686 33.615 12.4298 31.9587 8.62009 28.9445V23.846C8.62009 23.4851 8.33257 23.1924 7.97739 23.1924C7.62253 23.1924 7.33502 23.4851 7.33502 23.846V29.2611C7.33502 29.4595 7.42348 29.6471 7.57566 29.771C11.6527 33.0927 16.7755 34.9219 22 34.9219C25.5234 34.9219 29 34.0887 32.1419 32.528V35.173C31.1064 35.4606 30.3429 36.4251 30.3429 37.5681C30.3429 38.9371 31.4381 40.0513 32.7843 40.0513C34.1308 40.0513 35.226 38.9371 35.226 37.5681C35.226 36.4251 34.4625 35.4606 33.427 35.173V31.8378C34.4744 31.2319 35.4779 30.5424 36.4246 29.771C36.5768 29.6471 36.6656 29.4595 36.6656 29.2611V18.967L43.2197 16.4258C43.4686 16.3295 43.6333 16.0864 43.6333 15.8152V12.8312C43.6333 12.5603 43.4686 12.3173 43.2197 12.2206ZM33.941 37.5681C33.941 38.2164 33.422 38.7441 32.7843 38.7441C32.1469 38.7441 31.628 38.2164 31.628 37.5681C31.628 36.9196 32.1469 36.3919 32.7843 36.3919C33.422 36.3919 33.941 36.9196 33.941 37.5681ZM1.65171 13.7799L21.3573 21.4203V23.0054L1.65171 15.365V13.7799ZM22.6427 23.0054V21.4203L32.1419 17.737V19.3225L22.6427 23.0054ZM35.3802 28.9442C34.7533 29.4403 34.1007 29.8989 33.427 30.3198V20.2228L35.3802 19.4655V28.9442ZM33.427 18.824V17.2389L42.3482 13.7799V15.365L33.427 18.824Z" fill="#0D1930" fill-opacity="0.87"/>
</g>
<defs>
<clipPath id="clip0_1587_33255">
<rect width="43.2667" height="44" fill="white" transform="translate(0.366638)"/>
</clipPath>
</defs>
</svg>
