<svg width="44" height="44" viewBox="0 0 44 44" fill="none" xmlns="http://www.w3.org/2000/svg">
<path d="M37.4068 6.44359C33.268 2.28834 27.7653 0 21.9123 0C16.0594 0 10.5567 2.28834 6.41792 6.44359C2.27914 10.5988 0 16.1236 0 22C0 27.8764 2.27923 33.4011 6.41792 37.5564C10.5566 41.7117 16.0594 44 21.9123 44C27.7653 44 33.268 41.7117 37.4068 37.5564C41.5456 33.4012 43.8247 27.8764 43.8247 22C43.8247 16.1236 41.5455 10.5989 37.4068 6.44359ZM36.4384 36.5841C32.5583 40.4797 27.3995 42.625 21.9123 42.625C16.4252 42.625 11.2664 40.4797 7.38634 36.5841C3.50632 32.6886 1.36952 27.5091 1.36952 22C1.36952 16.4909 3.50632 11.3114 7.38634 7.41589C11.2664 3.52034 16.4252 1.375 21.9123 1.375C27.3995 1.375 32.5583 3.52034 36.4384 7.41589C40.3184 11.3114 42.4552 16.4909 42.4552 22C42.4552 27.5091 40.3184 32.6886 36.4384 36.5841Z" fill="#0D1930" fill-opacity="0.87"/>
<path d="M4.10854 22C4.10854 12.1437 12.0953 4.125 21.9123 4.125C25.4532 4.125 28.8734 5.16579 31.8033 7.13488C32.1175 7.34611 32.5428 7.26155 32.7532 6.94598C32.9636 6.63051 32.8794 6.20348 32.5651 5.99225C29.4091 3.87114 25.7254 2.75 21.9123 2.75C16.7909 2.75 11.9761 4.75234 8.35474 8.38819C4.73338 12.024 2.73901 16.8581 2.73901 22C2.73901 26.7438 4.47266 31.3012 7.62068 34.8329C7.75592 34.9846 7.9432 35.0619 8.13117 35.0619C8.29371 35.0619 8.45694 35.0042 8.58756 34.8867C8.86934 34.6334 8.89339 34.1988 8.64114 33.9159C5.71832 30.6367 4.10854 26.4049 4.10854 22Z" fill="#0D1930" fill-opacity="0.87"/>
<path d="M37.8564 11.3048C37.646 10.9892 37.2207 10.9047 36.9065 11.1159C36.5922 11.3272 36.5079 11.7542 36.7183 12.0697C38.6795 15.0111 39.7161 18.445 39.7161 22C39.7161 31.8563 31.7293 39.875 21.9123 39.875C17.8395 39.875 13.8582 38.4588 10.702 35.8874C10.4084 35.6482 9.97712 35.6932 9.73883 35.988C9.50053 36.2829 9.54538 36.7159 9.83906 36.9551C13.2385 39.7247 17.5262 41.25 21.9123 41.25C27.0337 41.25 31.8486 39.2477 35.4699 35.6118C39.0913 31.976 41.0856 27.1419 41.0856 22C41.0856 18.1717 39.969 14.4733 37.8564 11.3048Z" fill="#0D1930" fill-opacity="0.87"/>
<path d="M33.7808 8.67582C34.2412 9.08944 34.6851 9.5321 35.1001 9.99135C35.2353 10.1409 35.421 10.2169 35.6075 10.2169C35.7715 10.2169 35.9363 10.1579 36.0674 10.0384C36.3474 9.7833 36.3685 9.34846 36.1144 9.06727C35.6675 8.57296 35.1897 8.09652 34.6941 7.65119C34.4123 7.39802 33.9794 7.42208 33.7272 7.70499C33.475 7.98789 33.4989 8.42256 33.7808 8.67582Z" fill="#0D1930" fill-opacity="0.87"/>
<path d="M21.9124 8.9375C22.2905 8.9375 22.5971 8.62967 22.5971 8.25V6.1875C22.5971 5.80783 22.2905 5.5 21.9124 5.5C21.5342 5.5 21.2276 5.80783 21.2276 6.1875V8.25C21.2276 8.62967 21.5342 8.9375 21.9124 8.9375Z" fill="#0D1930" fill-opacity="0.87"/>
<path d="M21.2276 35.75V37.8125C21.2276 38.1922 21.5342 38.5 21.9124 38.5C22.2905 38.5 22.5971 38.1922 22.5971 37.8125V35.75C22.5971 35.3703 22.2905 35.0625 21.9124 35.0625C21.5342 35.0625 21.2276 35.3703 21.2276 35.75Z" fill="#0D1930" fill-opacity="0.87"/>
<path d="M8.90184 22C8.90184 21.6203 8.59523 21.3125 8.21707 21.3125H6.16279C5.78463 21.3125 5.47803 21.6203 5.47803 22C5.47803 22.3797 5.78463 22.6875 6.16279 22.6875H8.21707C8.59523 22.6875 8.90184 22.3797 8.90184 22Z" fill="#0D1930" fill-opacity="0.87"/>
<path d="M34.9228 22C34.9228 22.3797 35.2294 22.6875 35.6076 22.6875H37.6618C38.04 22.6875 38.3466 22.3797 38.3466 22C38.3466 21.6203 38.04 21.3125 37.6618 21.3125H35.6076C35.2294 21.3125 34.9228 21.6203 34.9228 22Z" fill="#0D1930" fill-opacity="0.87"/>
<path d="M15.6578 9.74841L14.6306 7.9622C14.4416 7.63332 14.0227 7.52082 13.6953 7.71057C13.3678 7.90041 13.2556 8.3209 13.4446 8.6497L14.4718 10.4359C14.5986 10.6564 14.8288 10.7797 15.0655 10.7797C15.1816 10.7797 15.2994 10.75 15.4072 10.6875C15.7346 10.4977 15.8469 10.0772 15.6578 9.74841Z" fill="#0D1930" fill-opacity="0.87"/>
<path d="M29.353 33.5641C29.1639 33.2353 28.745 33.1228 28.4176 33.3125C28.0901 33.5023 27.9779 33.9228 28.167 34.2516L29.1941 36.0378C29.321 36.2583 29.5511 36.3816 29.7878 36.3816C29.904 36.3816 30.0217 36.3519 30.1296 36.2894C30.4571 36.0996 30.5693 35.6791 30.3802 35.3503L29.353 33.5641Z" fill="#0D1930" fill-opacity="0.87"/>
<path d="M8.27352 30.5938C8.38968 30.5938 8.50746 30.5641 8.61531 30.5016L10.3944 29.4704C10.7219 29.2805 10.8341 28.86 10.645 28.5312C10.4559 28.2025 10.037 28.09 9.70964 28.2796L7.93054 29.3109C7.60306 29.5007 7.49084 29.9212 7.67992 30.25C7.80669 30.4705 8.03685 30.5938 8.27352 30.5938Z" fill="#0D1930" fill-opacity="0.87"/>
<path d="M33.7733 15.8126C33.8895 15.8126 34.0073 15.7828 34.1151 15.7204L35.8942 14.6891C36.2217 14.4993 36.3339 14.0788 36.1448 13.75C35.9558 13.4212 35.5369 13.3087 35.2095 13.4984L33.4304 14.5296C33.1029 14.7195 32.9907 15.1399 33.1797 15.4687C33.3066 15.6893 33.5368 15.8126 33.7733 15.8126Z" fill="#0D1930" fill-opacity="0.87"/>
<path d="M30.1295 7.71057C29.802 7.52065 29.3832 7.63332 29.1941 7.9622L28.167 9.74841C27.9779 10.0772 28.0901 10.4977 28.4176 10.6875C28.5255 10.7501 28.6431 10.7797 28.7594 10.7797C28.9961 10.7797 29.2262 10.6564 29.3531 10.4359L30.3802 8.6497C30.5692 8.3209 30.457 7.90041 30.1295 7.71057Z" fill="#0D1930" fill-opacity="0.87"/>
<path d="M15.4072 33.3125C15.0797 33.1226 14.6609 33.2353 14.4718 33.5641L13.4446 35.3503C13.2556 35.6791 13.3678 36.0996 13.6953 36.2894C13.8031 36.352 13.9208 36.3816 14.037 36.3816C14.2737 36.3816 14.5039 36.2583 14.6307 36.0378L15.6579 34.2516C15.8469 33.9228 15.7346 33.5023 15.4072 33.3125Z" fill="#0D1930" fill-opacity="0.87"/>
<path d="M33.4303 29.4704L35.2094 30.5016C35.3173 30.5642 35.435 30.5938 35.5512 30.5938C35.7879 30.5938 36.0181 30.4705 36.1449 30.25C36.334 29.9212 36.2218 29.5007 35.8943 29.3109L34.1152 28.2796C33.7877 28.0897 33.3689 28.2025 33.1798 28.5312C32.9906 28.86 33.1028 29.2805 33.4303 29.4704Z" fill="#0D1930" fill-opacity="0.87"/>
<path d="M10.3943 14.5296L8.61524 13.4984C8.28776 13.3084 7.86894 13.4212 7.67986 13.75C7.49078 14.0788 7.603 14.4993 7.93048 14.6891L9.70958 15.7204C9.81743 15.7829 9.93512 15.8126 10.0514 15.8126C10.288 15.8126 10.5182 15.6893 10.645 15.4687C10.834 15.1399 10.7218 14.7195 10.3943 14.5296Z" fill="#0D1930" fill-opacity="0.87"/>
<path d="M26.6793 30.9763C26.7955 30.9763 26.9133 30.9465 27.0211 30.884C27.3486 30.6942 27.4608 30.2737 27.2717 29.9449L23.473 23.339C23.7804 22.9783 23.9667 22.5107 23.9667 22C23.9667 21.1038 23.3941 20.3395 22.5971 20.0558V11C22.5971 10.6203 22.2905 10.3125 21.9124 10.3125C21.5342 10.3125 21.2276 10.6203 21.2276 11V20.0558C20.4306 20.3395 19.8581 21.1038 19.8581 22C19.8581 23.1373 20.7796 24.0625 21.9124 24.0625C22.0405 24.0625 22.1658 24.05 22.2875 24.0274L26.0857 30.6324C26.2126 30.8529 26.4428 30.9763 26.6793 30.9763ZM21.2276 22C21.2276 21.6209 21.5348 21.3125 21.9124 21.3125C22.2899 21.3125 22.5971 21.6209 22.5971 22C22.5971 22.3791 22.2899 22.6875 21.9124 22.6875C21.5348 22.6875 21.2276 22.3791 21.2276 22Z" fill="#0D1930" fill-opacity="0.87"/>
</svg>
