<?xml version="1.0" encoding="UTF-8"?>
<!DOCTYPE svg PUBLIC "-//W3C//DTD SVG 1.1//EN" "http://www.w3.org/Graphics/SVG/1.1/DTD/svg11.dtd">
<svg xmlns="http://www.w3.org/2000/svg" version="1.1" width="512px" height="512px" style="shape-rendering:geometricPrecision; text-rendering:geometricPrecision; image-rendering:optimizeQuality; fill-rule:evenodd; clip-rule:evenodd" xmlns:xlink="http://www.w3.org/1999/xlink">
<g><path style="opacity:0.96" fill="#000000" d="M 13.5,-0.5 C 17.5,-0.5 21.5,-0.5 25.5,-0.5C 28.2341,0.704964 30.9007,2.20496 33.5,4C 107.347,78.0136 181.347,151.847 255.5,225.5C 329.653,151.847 403.653,78.0136 477.5,4C 480.099,2.20496 482.766,0.704964 485.5,-0.5C 489.5,-0.5 493.5,-0.5 497.5,-0.5C 504.5,1.83333 509.167,6.5 511.5,13.5C 511.5,17.5 511.5,21.5 511.5,25.5C 510.295,28.2341 508.795,30.9007 507,33.5C 432.986,107.347 359.153,181.347 285.5,255.5C 359.153,329.653 432.986,403.653 507,477.5C 508.795,480.099 510.295,482.766 511.5,485.5C 511.5,489.5 511.5,493.5 511.5,497.5C 509.167,504.5 504.5,509.167 497.5,511.5C 493.5,511.5 489.5,511.5 485.5,511.5C 482.766,510.295 480.099,508.795 477.5,507C 403.653,432.986 329.653,359.153 255.5,285.5C 181.347,359.153 107.347,432.986 33.5,507C 30.9007,508.795 28.2341,510.295 25.5,511.5C 21.5,511.5 17.5,511.5 13.5,511.5C 6.5,509.167 1.83333,504.5 -0.5,497.5C -0.5,493.5 -0.5,489.5 -0.5,485.5C 0.704964,482.766 2.20496,480.099 4,477.5C 78.0136,403.653 151.847,329.653 225.5,255.5C 151.847,181.347 78.0136,107.347 4,33.5C 2.20496,30.9007 0.704964,28.2341 -0.5,25.5C -0.5,21.5 -0.5,17.5 -0.5,13.5C 1.83333,6.5 6.5,1.83333 13.5,-0.5 Z"/></g>
</svg>
