<svg width="31" height="34" viewBox="0 0 31 34" fill="none" xmlns="http://www.w3.org/2000/svg">
<path d="M13.8192 0V3.39469C13.7763 5.53267 13.8192 7.66703 13.791 9.80501C13.7616 12.2025 13.791 14.6001 13.7518 16.9988C13.7432 17.0782 13.7604 17.1583 13.801 17.2275C13.8415 17.2967 13.9033 17.3514 13.9774 17.3839L20.0698 20.7641L24.9399 23.4731C25.1054 23.5637 25.1152 23.554 25.1152 23.3621V11.0991C25.1189 11.0388 25.1042 10.9787 25.073 10.9266C25.0417 10.8746 24.9954 10.8329 24.9399 10.807L19.5831 7.78896C19.5313 7.76489 19.4883 7.72591 19.4596 7.67718C19.4309 7.62845 19.418 7.57228 19.4224 7.51613V2.17299C19.4224 1.96173 19.4224 1.9569 19.6174 2.0583L25.8092 5.62442C27.2118 6.42964 28.6145 7.24451 30.0159 8.03885C30.0923 8.0728 30.156 8.1295 30.198 8.20096C30.24 8.27243 30.2582 8.35506 30.2501 8.43724V24.7829C30.2597 24.8654 30.2434 24.9488 30.2032 25.0218C30.1631 25.0948 30.1011 25.1539 30.0257 25.191C28.0361 26.3226 26.0495 27.4589 24.0657 28.6002C24.0257 28.6259 23.9791 28.6396 23.9314 28.6396C23.8837 28.6396 23.837 28.6259 23.7971 28.6002L15.6804 24.0695C13.453 22.8317 11.2293 21.5947 9.00925 20.3585C8.94695 20.3322 8.89462 20.2872 8.85964 20.2301C8.82466 20.1729 8.8088 20.1063 8.8143 20.0398V3.10255C8.81121 3.03068 8.83044 2.9596 8.86943 2.89878C8.90843 2.83795 8.96532 2.79028 9.03254 2.76211C10.575 1.88004 12.117 0.983479 13.6586 0.072433C13.6929 0.072433 13.7174 0.0241443 13.7518 0H13.8192Z" fill="#F79320"/>
<path d="M0 13.8142L3.55567 11.8428C3.9848 11.6099 4.41393 11.36 4.8308 11.139C4.9436 11.0763 5.00123 11.0871 4.99755 11.2296V21.9255C4.98982 22.0075 5.00807 22.0898 5.04978 22.1611C5.0915 22.2325 5.15463 22.2893 5.23051 22.3239C8.97663 24.4269 12.7227 26.5431 16.4689 28.6727L20.0245 30.6851C20.2624 30.8203 20.2624 30.8251 20.0245 30.9639L15.3261 33.749C15.2695 33.7896 15.2013 33.8115 15.1312 33.8115C15.0611 33.8115 14.9929 33.7896 14.9363 33.749C11.4002 31.7064 7.8617 29.6767 4.32075 27.6598L0.101766 25.2635L0 25.1814V13.8142Z" fill="#F79320"/>
<path d="M0 8.00739L4.80138 5.31167C4.97671 5.21027 5.00123 5.22475 5.00123 5.43239V8.89831C5.00572 8.95895 4.99134 9.0195 4.96002 9.07191C4.9287 9.12431 4.88192 9.16608 4.8259 9.19166C3.49191 9.92445 2.1616 10.6681 0.832516 11.4021C0.564913 11.5664 0.286831 11.7136 0 11.8427L0 8.00739Z" fill="#2C56A4"/>
</svg>
