<svg width="65" height="67" viewBox="0 0 65 67" fill="none" xmlns="http://www.w3.org/2000/svg">
<path fill-rule="evenodd" clip-rule="evenodd" d="M30.8146 5.91333C39.1946 7.97433 47.2646 7.83936 55.7646 8.08636C57.4246 8.13436 58.8046 6.83035 58.8546 5.17535C58.9046 3.51935 57.5946 2.13731 55.9346 2.08831C47.8746 1.85432 40.2047 2.04334 32.2447 0.0873392C30.6347 -0.308661 29.0047 0.676361 28.6147 2.28436C28.2147 3.89136 29.2046 5.51833 30.8146 5.91333Z" fill="#FA8B0D"/>
<path fill-rule="evenodd" clip-rule="evenodd" d="M14.5746 23.4234C27.3546 37.4054 43.7946 50.5794 60.3946 59.7874C61.8446 60.5904 63.6746 60.0674 64.4746 58.6194C65.2746 57.1714 64.7546 55.3434 63.3046 54.5404C47.2546 45.6364 31.3545 32.8954 19.0045 19.3754C17.8845 18.1534 15.9845 18.0684 14.7645 19.1854C13.5445 20.3024 13.4546 22.2014 14.5746 23.4234Z" fill="#FA8B0D"/>
<path fill-rule="evenodd" clip-rule="evenodd" d="M0.614567 26.9654C-1.49543 39.7534 2.10452 52.9344 7.19452 64.5624C7.86452 66.0794 9.63448 66.7714 11.1445 66.1084C12.6645 65.4444 13.3545 63.6734 12.6945 62.1564C8.05452 51.5664 4.61449 39.5894 6.53449 27.9424C6.80449 26.3084 5.69452 24.7634 4.06452 24.4944C2.43452 24.2244 0.884567 25.3324 0.614567 26.9654Z" fill="#FA8B0D"/>
</svg>
