<svg width="125" height="94" viewBox="0 0 125 94" fill="none" xmlns="http://www.w3.org/2000/svg">
<path d="M4.73325 3.55111L3.64096 0L2.54867 3.55111L0 6.26667L3.64096 5.43111L7.28192 6.26667L4.73325 3.55111Z" fill="#FA8B0D"/>
<path d="M21.5501 3.55111L20.4578 0L19.3655 3.55111L16.8169 6.26667L20.4578 5.43111L24.0988 6.26667L21.5501 3.55111Z" fill="#FA8B0D"/>
<path d="M37.2747 0L38.367 3.55111L40.9157 6.26667L37.2747 5.43111L33.6337 6.26667L36.1824 3.55111L37.2747 0Z" fill="#FA8B0D"/>
<path d="M55.1839 3.55111L54.0916 0L52.9993 3.55111L50.4506 6.26667L54.0916 5.43111L57.7325 6.26667L55.1839 3.55111Z" fill="#FA8B0D"/>
<path d="M70.9084 0L72.0007 3.55111L74.5494 6.26667L70.9084 5.43111L67.2675 6.26667L69.8161 3.55111L70.9084 0Z" fill="#FA8B0D"/>
<path d="M88.8176 3.55111L87.7253 0L86.633 3.55111L84.0843 6.26667L87.7253 5.43111L91.3663 6.26667L88.8176 3.55111Z" fill="#FA8B0D"/>
<path d="M104.542 0L105.634 3.55111L108.183 6.26667L104.542 5.43111L100.901 6.26667L103.45 3.55111L104.542 0Z" fill="#FA8B0D"/>
<path d="M122.451 3.55111L121.359 0L120.267 3.55111L117.718 6.26667L121.359 5.43111L125 6.26667L122.451 3.55111Z" fill="#FA8B0D"/>
<path d="M3.64096 12.5333L4.73325 16.0844L7.28192 18.8L3.64096 17.9644L0 18.8L2.54867 16.0844L3.64096 12.5333Z" fill="#FA8B0D"/>
<path d="M21.5501 16.0844L20.4578 12.5333L19.3655 16.0844L16.8169 18.8L20.4578 17.9644L24.0988 18.8L21.5501 16.0844Z" fill="#FA8B0D"/>
<path d="M37.2747 12.5333L38.367 16.0844L40.9157 18.8L37.2747 17.9644L33.6337 18.8L36.1824 16.0844L37.2747 12.5333Z" fill="#FA8B0D"/>
<path d="M55.1839 16.0844L54.0916 12.5333L52.9993 16.0844L50.4506 18.8L54.0916 17.9644L57.7325 18.8L55.1839 16.0844Z" fill="#FA8B0D"/>
<path d="M70.9084 12.5333L72.0007 16.0844L74.5494 18.8L70.9084 17.9644L67.2675 18.8L69.8161 16.0844L70.9084 12.5333Z" fill="#FA8B0D"/>
<path d="M88.8176 16.0844L87.7253 12.5333L86.633 16.0844L84.0843 18.8L87.7253 17.9644L91.3663 18.8L88.8176 16.0844Z" fill="#FA8B0D"/>
<path d="M104.542 12.5333L105.634 16.0844L108.183 18.8L104.542 17.9644L100.901 18.8L103.45 16.0844L104.542 12.5333Z" fill="#FA8B0D"/>
<path d="M122.451 16.0844L121.359 12.5333L120.267 16.0844L117.718 18.8L121.359 17.9644L125 18.8L122.451 16.0844Z" fill="#FA8B0D"/>
<path d="M3.64096 25.0667L4.73325 28.6178L7.28192 31.3333L3.64096 30.4978L0 31.3333L2.54867 28.6178L3.64096 25.0667Z" fill="#FA8B0D"/>
<path d="M21.5501 28.6178L20.4578 25.0667L19.3655 28.6178L16.8169 31.3333L20.4578 30.4978L24.0988 31.3333L21.5501 28.6178Z" fill="#FA8B0D"/>
<path d="M37.2747 25.0667L38.367 28.6178L40.9157 31.3333L37.2747 30.4978L33.6337 31.3333L36.1824 28.6178L37.2747 25.0667Z" fill="#FA8B0D"/>
<path d="M55.1839 28.6178L54.0916 25.0667L52.9993 28.6178L50.4506 31.3333L54.0916 30.4978L57.7325 31.3333L55.1839 28.6178Z" fill="#FA8B0D"/>
<path d="M70.9084 25.0667L72.0007 28.6178L74.5494 31.3333L70.9084 30.4978L67.2675 31.3333L69.8161 28.6178L70.9084 25.0667Z" fill="#FA8B0D"/>
<path d="M88.8176 28.6178L87.7253 25.0667L86.633 28.6178L84.0843 31.3333L87.7253 30.4978L91.3663 31.3333L88.8176 28.6178Z" fill="#FA8B0D"/>
<path d="M104.542 25.0667L105.634 28.6178L108.183 31.3333L104.542 30.4978L100.901 31.3333L103.45 28.6178L104.542 25.0667Z" fill="#FA8B0D"/>
<path d="M122.451 28.6178L121.359 25.0667L120.267 28.6178L117.718 31.3333L121.359 30.4978L125 31.3333L122.451 28.6178Z" fill="#FA8B0D"/>
<path d="M3.64096 37.6L4.73325 41.1511L7.28192 43.8667L3.64096 43.0311L0 43.8667L2.54867 41.1511L3.64096 37.6Z" fill="#FA8B0D"/>
<path d="M21.5501 41.1511L20.4578 37.6L19.3655 41.1511L16.8169 43.8667L20.4578 43.0311L24.0988 43.8667L21.5501 41.1511Z" fill="#FA8B0D"/>
<path d="M37.2747 37.6L38.367 41.1511L40.9157 43.8667L37.2747 43.0311L33.6337 43.8667L36.1824 41.1511L37.2747 37.6Z" fill="#FA8B0D"/>
<path d="M55.1839 41.1511L54.0916 37.6L52.9993 41.1511L50.4506 43.8667L54.0916 43.0311L57.7325 43.8667L55.1839 41.1511Z" fill="#FA8B0D"/>
<path d="M70.9084 37.6L72.0007 41.1511L74.5494 43.8667L70.9084 43.0311L67.2675 43.8667L69.8161 41.1511L70.9084 37.6Z" fill="#FA8B0D"/>
<path d="M88.8176 41.1511L87.7253 37.6L86.633 41.1511L84.0843 43.8667L87.7253 43.0311L91.3663 43.8667L88.8176 41.1511Z" fill="#FA8B0D"/>
<path d="M104.542 37.6L105.634 41.1511L108.183 43.8667L104.542 43.0311L100.901 43.8667L103.45 41.1511L104.542 37.6Z" fill="#FA8B0D"/>
<path d="M122.451 41.1511L121.359 37.6L120.267 41.1511L117.718 43.8667L121.359 43.0311L125 43.8667L122.451 41.1511Z" fill="#FA8B0D"/>
<path d="M3.64096 50.1333L4.73325 53.6844L7.28192 56.4L3.64096 55.5644L0 56.4L2.54867 53.6844L3.64096 50.1333Z" fill="#FA8B0D"/>
<path d="M21.5501 53.6844L20.4578 50.1333L19.3655 53.6844L16.8169 56.4L20.4578 55.5644L24.0988 56.4L21.5501 53.6844Z" fill="#FA8B0D"/>
<path d="M37.2747 50.1333L38.367 53.6844L40.9157 56.4L37.2747 55.5644L33.6337 56.4L36.1824 53.6844L37.2747 50.1333Z" fill="#FA8B0D"/>
<path d="M55.1839 53.6844L54.0916 50.1333L52.9993 53.6844L50.4506 56.4L54.0916 55.5644L57.7325 56.4L55.1839 53.6844Z" fill="#FA8B0D"/>
<path d="M70.9084 50.1333L72.0007 53.6844L74.5494 56.4L70.9084 55.5644L67.2675 56.4L69.8161 53.6844L70.9084 50.1333Z" fill="#FA8B0D"/>
<path d="M88.8176 53.6844L87.7253 50.1333L86.633 53.6844L84.0843 56.4L87.7253 55.5644L91.3663 56.4L88.8176 53.6844Z" fill="#FA8B0D"/>
<path d="M104.542 50.1333L105.634 53.6844L108.183 56.4L104.542 55.5644L100.901 56.4L103.45 53.6844L104.542 50.1333Z" fill="#FA8B0D"/>
<path d="M122.451 53.6844L121.359 50.1333L120.267 53.6844L117.718 56.4L121.359 55.5644L125 56.4L122.451 53.6844Z" fill="#FA8B0D"/>
<path d="M3.64096 62.6667L4.73325 66.2178L7.28192 68.9333L3.64096 68.0978L0 68.9333L2.54867 66.2178L3.64096 62.6667Z" fill="#FA8B0D"/>
<path d="M21.5501 66.2178L20.4578 62.6667L19.3655 66.2178L16.8169 68.9333L20.4578 68.0978L24.0988 68.9333L21.5501 66.2178Z" fill="#FA8B0D"/>
<path d="M37.2747 62.6667L38.367 66.2178L40.9157 68.9333L37.2747 68.0978L33.6337 68.9333L36.1824 66.2178L37.2747 62.6667Z" fill="#FA8B0D"/>
<path d="M55.1839 66.2178L54.0916 62.6667L52.9993 66.2178L50.4506 68.9333L54.0916 68.0978L57.7325 68.9333L55.1839 66.2178Z" fill="#FA8B0D"/>
<path d="M70.9084 62.6667L72.0007 66.2178L74.5494 68.9333L70.9084 68.0978L67.2675 68.9333L69.8161 66.2178L70.9084 62.6667Z" fill="#FA8B0D"/>
<path d="M88.8176 66.2178L87.7253 62.6667L86.633 66.2178L84.0843 68.9333L87.7253 68.0978L91.3663 68.9333L88.8176 66.2178Z" fill="#FA8B0D"/>
<path d="M104.542 62.6667L105.634 66.2178L108.183 68.9333L104.542 68.0978L100.901 68.9333L103.45 66.2178L104.542 62.6667Z" fill="#FA8B0D"/>
<path d="M122.451 66.2178L121.359 62.6667L120.267 66.2178L117.718 68.9333L121.359 68.0978L125 68.9333L122.451 66.2178Z" fill="#FA8B0D"/>
<path d="M3.64096 75.2L4.73325 78.7511L7.28192 81.4667L3.64096 80.6311L0 81.4667L2.54867 78.7511L3.64096 75.2Z" fill="#FA8B0D"/>
<path d="M21.5501 78.7511L20.4578 75.2L19.3655 78.7511L16.8169 81.4667L20.4578 80.6311L24.0988 81.4667L21.5501 78.7511Z" fill="#FA8B0D"/>
<path d="M37.2747 75.2L38.367 78.7511L40.9157 81.4667L37.2747 80.6311L33.6337 81.4667L36.1824 78.7511L37.2747 75.2Z" fill="#FA8B0D"/>
<path d="M55.1839 78.7511L54.0916 75.2L52.9993 78.7511L50.4506 81.4667L54.0916 80.6311L57.7325 81.4667L55.1839 78.7511Z" fill="#FA8B0D"/>
<path d="M70.9084 75.2L72.0007 78.7511L74.5494 81.4667L70.9084 80.6311L67.2675 81.4667L69.8161 78.7511L70.9084 75.2Z" fill="#FA8B0D"/>
<path d="M88.8176 78.7511L87.7253 75.2L86.633 78.7511L84.0843 81.4667L87.7253 80.6311L91.3663 81.4667L88.8176 78.7511Z" fill="#FA8B0D"/>
<path d="M104.542 75.2L105.634 78.7511L108.183 81.4667L104.542 80.6311L100.901 81.4667L103.45 78.7511L104.542 75.2Z" fill="#FA8B0D"/>
<path d="M122.451 78.7511L121.359 75.2L120.267 78.7511L117.718 81.4667L121.359 80.6311L125 81.4667L122.451 78.7511Z" fill="#FA8B0D"/>
<path d="M3.64096 87.7333L4.73325 91.2844L7.28192 94L3.64096 93.1644L0 94L2.54867 91.2844L3.64096 87.7333Z" fill="#FA8B0D"/>
<path d="M21.5501 91.2844L20.4578 87.7333L19.3655 91.2844L16.8169 94L20.4578 93.1644L24.0988 94L21.5501 91.2844Z" fill="#FA8B0D"/>
<path d="M37.2747 87.7333L38.367 91.2844L40.9157 94L37.2747 93.1644L33.6337 94L36.1824 91.2844L37.2747 87.7333Z" fill="#FA8B0D"/>
<path d="M55.1839 91.2844L54.0916 87.7333L52.9993 91.2844L50.4506 94L54.0916 93.1644L57.7325 94L55.1839 91.2844Z" fill="#FA8B0D"/>
<path d="M70.9084 87.7333L72.0007 91.2844L74.5494 94L70.9084 93.1644L67.2675 94L69.8161 91.2844L70.9084 87.7333Z" fill="#FA8B0D"/>
<path d="M88.8176 91.2844L87.7253 87.7333L86.633 91.2844L84.0843 94L87.7253 93.1644L91.3663 94L88.8176 91.2844Z" fill="#FA8B0D"/>
<path d="M104.542 87.7333L105.634 91.2844L108.183 94L104.542 93.1644L100.901 94L103.45 91.2844L104.542 87.7333Z" fill="#FA8B0D"/>
<path d="M122.451 91.2844L121.359 87.7333L120.267 91.2844L117.718 94L121.359 93.1644L125 94L122.451 91.2844Z" fill="#FA8B0D"/>
</svg>
