<svg width="354" height="326" viewBox="0 0 354 326" fill="none" xmlns="http://www.w3.org/2000/svg">
<path fill-rule="evenodd" clip-rule="evenodd" d="M121.074 39.937C164.764 36.5891 205.34 57.2099 236.324 88.1935C273.265 125.134 316.86 171.271 302.696 221.556C288.786 270.942 225.316 278.689 177.457 297.183C136.87 312.867 93.3933 337.779 55.0201 317.265C17.5858 297.253 12.8312 248.174 7.10585 206.114C2.20772 170.131 5.49251 134.257 26.0319 104.308C48.8006 71.1091 80.9353 43.0129 121.074 39.937Z" fill="#FA8B0D" fill-opacity="0.8"/>
<path fill-rule="evenodd" clip-rule="evenodd" d="M172.487 14.6376C224.018 13.4884 285.232 -8.63817 318.585 30.6598C352.284 70.365 325.209 128.638 311.993 179.011C299.588 226.295 289.62 278.043 247.275 302.469C201.805 328.697 144.783 325.678 97.5958 302.683C50.6782 279.818 18.4808 235.852 6.39201 185.079C-5.84873 133.668 -2.54572 74.8479 34.3379 36.999C68.5911 1.84941 123.42 15.7319 172.487 14.6376Z" fill="#2C56A4" fill-opacity="0.8"/>
<path fill-rule="evenodd" clip-rule="evenodd" d="M172.487 1.82144C221.807 -3.76356 274.992 2.19556 309.3 38.0642C346.928 77.4027 361.502 134.483 350.343 187.764C338.943 242.195 305.001 295.536 251.909 312.092C203.845 327.079 161.925 284.902 118.056 260.197C79.844 238.679 31.1619 224.4 20.6061 181.835C9.92374 138.76 41.0781 99.1168 69.697 65.1969C97.0062 32.8292 130.407 6.58662 172.487 1.82144Z" fill="#44DE7A" fill-opacity="0.8"/>
</svg>
