<svg width="162" height="34" viewBox="0 0 162 34" fill="none" xmlns="http://www.w3.org/2000/svg">
<path d="M45.6588 12.697C46.7501 12.697 47.4839 11.982 47.4839 11.0036C47.4839 10.1005 46.7501 9.42314 45.6588 9.42314C44.5676 9.42314 43.8338 10.1381 43.8338 11.0601C43.8338 11.982 44.5676 12.697 45.6588 12.697ZM44.1912 24.2308H47.1264V14.1081H44.1912V24.2308Z" fill="#2C56A4"/>
<path d="M50.0575 24.2308H59.7097V21.7472H53.1056V11.0601H50.0575V24.2308ZM71.048 19.2071C71.048 15.952 68.7525 13.9576 65.7797 13.9576C62.694 13.9576 60.3797 16.1402 60.3797 19.1695C60.3797 22.1799 62.6564 24.3813 66.156 24.3813C67.9811 24.3813 69.3923 23.8168 70.333 22.7444L68.7714 21.051C68.0752 21.7095 67.3038 22.0294 66.2313 22.0294C64.6884 22.0294 63.616 21.258 63.3337 19.9973H70.9916C71.0104 19.7527 71.048 19.4329 71.048 19.2071ZM65.7985 16.1778C67.1156 16.1778 68.0752 17.0057 68.2822 18.2851H63.2961C63.5031 16.9869 64.4627 16.1778 65.7985 16.1778ZM76.8095 13.9576C75.1913 13.9576 73.5544 14.3904 72.4443 15.1806L73.498 17.2315C74.2318 16.6482 75.3419 16.2907 76.4143 16.2907C77.9948 16.2907 78.7474 17.0245 78.7474 18.2851H76.4143C73.3286 18.2851 72.068 19.527 72.068 21.3144C72.068 23.0642 73.4791 24.3813 75.8499 24.3813C77.3363 24.3813 78.3899 23.8921 78.9356 22.9701V24.2308H81.6826V18.4545C81.6826 15.3876 79.8952 13.9576 76.8095 13.9576ZM76.5837 22.4057C75.5488 22.4057 74.9279 21.9165 74.9279 21.1827C74.9279 20.5053 75.3607 19.9973 76.7342 19.9973H78.7474V21.0322C78.4088 21.9541 77.5621 22.4057 76.5837 22.4057ZM87.1426 15.444V14.1081H84.3391V24.2308H87.2743V19.4517C87.2743 17.5137 88.3468 16.6294 89.9649 16.6294C90.1907 16.6294 90.3788 16.6482 90.6234 16.667V13.9576C89.0617 13.9576 87.8576 14.4656 87.1426 15.444ZM98.5213 13.9576C97.1477 13.9576 95.9624 14.428 95.1721 15.2935V14.1081H92.3687V24.2308H95.3039V19.2259C95.3039 17.3632 96.3199 16.4977 97.731 16.4977C99.0293 16.4977 99.7819 17.2503 99.7819 18.8872V24.2308H102.717V18.4357C102.717 15.35 100.911 13.9576 98.5213 13.9576ZM115.256 17.382C116.328 16.8176 117.006 15.8015 117.006 14.4845C117.006 12.4336 115.312 11.0601 112.019 11.0601H105.585V24.2308H112.396C115.858 24.2308 117.664 22.9137 117.664 20.6371C117.664 18.9813 116.723 17.8524 115.256 17.382ZM111.643 13.3555C113.13 13.3555 113.939 13.8636 113.939 14.8984C113.939 15.9332 113.13 16.4601 111.643 16.4601H108.614V13.3555H111.643ZM112.17 21.9353H108.614V18.6803H112.17C113.75 18.6803 114.597 19.2071 114.597 20.3172C114.597 21.4461 113.75 21.9353 112.17 21.9353ZM119.765 24.2308H122.7V10.2698H119.765V24.2308ZM130.241 24.3813C133.458 24.3813 135.791 22.2175 135.791 19.1695C135.791 16.1214 133.458 13.9576 130.241 13.9576C127.023 13.9576 124.671 16.1214 124.671 19.1695C124.671 22.2175 127.023 24.3813 130.241 24.3813ZM130.241 21.9729C128.773 21.9729 127.644 20.9193 127.644 19.1695C127.644 17.4196 128.773 16.366 130.241 16.366C131.708 16.366 132.818 17.4196 132.818 19.1695C132.818 20.9193 131.708 21.9729 130.241 21.9729ZM142.645 24.3813C144.771 24.3813 146.446 23.4405 147.18 21.8224L144.903 20.5806C144.357 21.559 143.548 21.9729 142.626 21.9729C141.14 21.9729 139.973 20.9381 139.973 19.1695C139.973 17.4008 141.14 16.366 142.626 16.366C143.548 16.366 144.357 16.7987 144.903 17.7583L147.18 16.5353C146.446 14.8796 144.771 13.9576 142.645 13.9576C139.352 13.9576 137.001 16.1214 137.001 19.1695C137.001 22.2175 139.352 24.3813 142.645 24.3813ZM156.341 24.2308H159.897L155.306 18.398L159.521 14.1081H156.021L151.731 18.1723V10.2698H148.796V24.2308H151.731V21.6531L153.142 20.2607L156.341 24.2308Z" fill="#FA8B0D"/>
<path d="M13.8191 0V3.39469C13.7762 5.53267 13.8191 7.66703 13.7909 9.80501C13.7615 12.2025 13.7909 14.6001 13.7517 16.9988C13.7431 17.0782 13.7604 17.1583 13.8009 17.2275C13.8414 17.2967 13.9032 17.3514 13.9773 17.3839L20.0698 20.7641L24.9398 23.4731C25.1053 23.5637 25.1151 23.554 25.1151 23.3621V11.0991C25.1188 11.0388 25.1041 10.9787 25.0729 10.9266C25.0416 10.8746 24.9953 10.8329 24.9398 10.807L19.583 7.78896C19.5313 7.76489 19.4882 7.72591 19.4595 7.67718C19.4308 7.62845 19.4179 7.57228 19.4224 7.51613V2.17299C19.4224 1.96173 19.4224 1.9569 19.6173 2.0583L25.8091 5.62442C27.2117 6.42964 28.6144 7.24451 30.0158 8.03885C30.0923 8.0728 30.156 8.1295 30.198 8.20096C30.24 8.27243 30.2582 8.35506 30.25 8.43724V24.7829C30.2597 24.8654 30.2433 24.9488 30.2032 25.0218C30.163 25.0948 30.101 25.1539 30.0256 25.191C28.0361 26.3226 26.0494 27.4589 24.0656 28.6002C24.0257 28.6259 23.979 28.6396 23.9313 28.6396C23.8836 28.6396 23.837 28.6259 23.7971 28.6002L15.6804 24.0695C13.453 22.8317 11.2292 21.5947 9.00919 20.3585C8.94689 20.3322 8.89456 20.2872 8.85958 20.2301C8.8246 20.1729 8.80874 20.1063 8.81424 20.0398V3.10255C8.81115 3.03068 8.83038 2.9596 8.86937 2.89878C8.90836 2.83795 8.96526 2.79028 9.03248 2.76211C10.5749 1.88004 12.1169 0.983479 13.6585 0.072433C13.6929 0.072433 13.7174 0.0241443 13.7517 0H13.8191Z" fill="#F79320"/>
<path d="M0 13.8142L3.55567 11.8428C3.9848 11.6098 4.41393 11.3599 4.8308 11.139C4.9436 11.0762 5.00123 11.0871 4.99755 11.2295V21.9255C4.98982 22.0074 5.00807 22.0897 5.04978 22.1611C5.0915 22.2324 5.15463 22.2893 5.23051 22.3238C8.97663 24.4268 12.7227 26.5431 16.4689 28.6726L20.0245 30.685C20.2624 30.8202 20.2624 30.8251 20.0245 30.9639L15.3261 33.7489C15.2695 33.7896 15.2013 33.8115 15.1312 33.8115C15.0611 33.8115 14.9929 33.7896 14.9363 33.7489C11.4002 31.7063 7.8617 29.6766 4.32075 27.6597L0.101766 25.2634L0 25.1813V13.8142Z" fill="#F79320"/>
<path d="M0 8.00751L4.80138 5.31179C4.97671 5.21039 5.00123 5.22487 5.00123 5.43252V8.89843C5.00572 8.95908 4.99134 9.01963 4.96002 9.07203C4.9287 9.12443 4.88192 9.1662 4.8259 9.19179C3.49191 9.92457 2.1616 10.6682 0.832516 11.4022C0.564913 11.5665 0.286831 11.7137 0 11.8428L0 8.00751Z" fill="#2C56A4"/>
</svg>
