<svg width="20" height="20" viewBox="0 0 20 20" fill="none" xmlns="http://www.w3.org/2000/svg">
<path d="M15.5462 19.0341C15.3926 19.0337 15.2414 18.996 15.1056 18.9241L10.2762 16.3848L5.44671 18.9241C5.29033 19.0061 5.11418 19.0427 4.93812 19.0299C4.76205 19.017 4.59307 18.9553 4.45022 18.8515C4.30738 18.7478 4.19636 18.6062 4.12968 18.4428C4.06299 18.2793 4.0433 18.1005 4.07282 17.9264L4.99474 12.5484L1.08721 8.73936C0.960806 8.61594 0.871421 8.45964 0.829154 8.2881C0.786886 8.11657 0.793418 7.93663 0.848012 7.76861C0.902606 7.60059 1.00309 7.45118 1.13811 7.33725C1.27314 7.22332 1.43732 7.14941 1.61213 7.12386L7.01199 6.33932L9.4272 1.44638C9.5142 1.29842 9.63834 1.17575 9.78733 1.09052C9.93633 1.00528 10.105 0.960449 10.2766 0.960449C10.4483 0.960449 10.617 1.00528 10.7659 1.09052C10.9149 1.17575 11.0391 1.29842 11.1261 1.44638L13.5403 6.33932L18.9402 7.12386C19.115 7.14941 19.2792 7.22332 19.4142 7.33725C19.5492 7.45118 19.6497 7.60059 19.7043 7.76861C19.7589 7.93663 19.7654 8.11657 19.7232 8.2881C19.6809 8.45964 19.5915 8.61594 19.4651 8.73936L15.5576 12.5484L16.4805 17.9264C16.5038 18.0624 16.4971 18.2018 16.461 18.3349C16.4248 18.468 16.36 18.5916 16.2712 18.6971C16.1823 18.8026 16.0715 18.8874 15.9464 18.9456C15.8213 19.0038 15.6851 19.034 15.5472 19.0341H15.5462Z" fill="#E6E8EB"/>
</svg>
