<svg width="209" height="81" viewBox="0 0 209 81" fill="none" xmlns="http://www.w3.org/2000/svg">
<g filter="url(#filter0_d_1587_33296)">
<path d="M12 10C12 6.68629 14.6863 4 18 4H191C194.314 4 197 6.68629 197 10V55C197 58.3137 194.314 61 191 61H18C14.6863 61 12 58.3137 12 55V10Z" fill="#0D1930"/>
<path d="M84.152 43.76C83.432 44.176 82.648 44.336 81.848 44.336C79.48 44.336 77.8 42.672 77.8 40.4C77.8 38.08 79.48 36.464 81.864 36.464C83.064 36.464 84.072 36.864 84.952 37.744L86.264 36.464C85.208 35.264 83.64 34.64 81.768 34.64C78.264 34.64 75.704 37.056 75.704 40.4C75.704 43.744 78.264 46.16 81.736 46.16C83.32 46.16 84.952 45.68 86.12 44.736V40.272H84.152V43.76ZM92.5114 46.112C95.1674 46.112 97.0714 44.288 97.0714 41.728C97.0714 39.168 95.1674 37.36 92.5114 37.36C89.8874 37.36 87.9674 39.168 87.9674 41.728C87.9674 44.288 89.8874 46.112 92.5114 46.112ZM92.5114 44.4C91.0714 44.4 89.9834 43.36 89.9834 41.728C89.9834 40.096 91.0714 39.056 92.5114 39.056C93.9674 39.056 95.0554 40.096 95.0554 41.728C95.0554 43.36 93.9674 44.4 92.5114 44.4ZM102.824 46.112C105.48 46.112 107.384 44.288 107.384 41.728C107.384 39.168 105.48 37.36 102.824 37.36C100.2 37.36 98.2799 39.168 98.2799 41.728C98.2799 44.288 100.2 46.112 102.824 46.112ZM102.824 44.4C101.384 44.4 100.296 43.36 100.296 41.728C100.296 40.096 101.384 39.056 102.824 39.056C104.28 39.056 105.368 40.096 105.368 41.728C105.368 43.36 104.28 44.4 102.824 44.4ZM115.872 37.456V38.592C115.168 37.744 114.112 37.36 112.912 37.36C110.464 37.36 108.592 38.992 108.592 41.472C108.592 43.952 110.464 45.616 112.912 45.616C114.064 45.616 115.072 45.248 115.776 44.48V44.928C115.776 46.656 114.944 47.52 113.056 47.52C111.872 47.52 110.656 47.12 109.904 46.496L109.008 48C109.984 48.8 111.568 49.216 113.168 49.216C116.16 49.216 117.776 47.808 117.776 44.704V37.456H115.872ZM113.216 43.92C111.696 43.92 110.608 42.928 110.608 41.472C110.608 40.032 111.696 39.056 113.216 39.056C114.72 39.056 115.808 40.032 115.808 41.472C115.808 42.928 114.72 43.92 113.216 43.92ZM120.406 46H122.406V34.128H120.406V46ZM133.063 41.776C133.063 39.104 131.239 37.36 128.743 37.36C126.199 37.36 124.327 39.184 124.327 41.728C124.327 44.272 126.183 46.112 129.047 46.112C130.519 46.112 131.719 45.632 132.487 44.72L131.415 43.488C130.807 44.112 130.055 44.416 129.095 44.416C127.607 44.416 126.567 43.616 126.327 42.368H133.031C133.047 42.176 133.063 41.936 133.063 41.776ZM128.743 38.96C130.055 38.96 130.999 39.808 131.159 41.04H126.311C126.503 39.792 127.447 38.96 128.743 38.96ZM144.206 34.8H139.598V46H141.678V42.768H144.206C147.15 42.768 148.974 41.248 148.974 38.784C148.974 36.304 147.15 34.8 144.206 34.8ZM144.11 41.008H141.678V36.56H144.11C145.934 36.56 146.878 37.376 146.878 38.784C146.878 40.192 145.934 41.008 144.11 41.008ZM151.015 46H153.015V34.128H151.015V46ZM158.904 37.36C157.528 37.36 156.2 37.712 155.288 38.416L156.072 39.872C156.712 39.344 157.704 39.024 158.664 39.024C160.088 39.024 160.792 39.712 160.792 40.88V41.008H158.584C155.992 41.008 155.032 42.128 155.032 43.552C155.032 45.04 156.264 46.112 158.216 46.112C159.496 46.112 160.424 45.696 160.904 44.96V46H162.792V40.992C162.792 38.528 161.368 37.36 158.904 37.36ZM158.632 44.656C157.608 44.656 157 44.192 157 43.472C157 42.848 157.368 42.336 158.728 42.336H160.792V43.328C160.456 44.208 159.608 44.656 158.632 44.656ZM171.283 37.456L168.579 43.776L165.891 37.456H163.811L167.539 46.032L167.395 46.368C167.011 47.216 166.595 47.552 165.891 47.552C165.347 47.552 164.803 47.328 164.419 46.96L163.619 48.432C164.163 48.928 165.059 49.216 165.907 49.216C167.331 49.216 168.419 48.624 169.203 46.688L173.203 37.456H171.283Z" fill="white"/>
<path d="M81.292 23.46C80.797 23.746 80.258 23.856 79.708 23.856C78.08 23.856 76.925 22.712 76.925 21.15C76.925 19.555 78.08 18.444 79.719 18.444C80.544 18.444 81.237 18.719 81.842 19.324L82.744 18.444C82.018 17.619 80.94 17.19 79.653 17.19C77.244 17.19 75.484 18.851 75.484 21.15C75.484 23.449 77.244 25.11 79.631 25.11C80.72 25.11 81.842 24.78 82.645 24.131V21.062H81.292V23.46ZM89.9211 22.096C89.9211 20.259 88.6671 19.06 86.9511 19.06C85.2021 19.06 83.9151 20.314 83.9151 22.063C83.9151 23.812 85.1911 25.077 87.1601 25.077C88.1721 25.077 88.9971 24.747 89.5251 24.12L88.7881 23.273C88.3701 23.702 87.8531 23.911 87.1931 23.911C86.1701 23.911 85.4551 23.361 85.2901 22.503H89.8991C89.9101 22.371 89.9211 22.206 89.9211 22.096ZM86.9511 20.16C87.8531 20.16 88.5021 20.743 88.6121 21.59H85.2791C85.4111 20.732 86.0601 20.16 86.9511 20.16ZM94.3878 23.702C94.1788 23.867 93.9038 23.944 93.6178 23.944C93.0898 23.944 92.8038 23.636 92.8038 23.064V20.27H94.3768V19.17H92.8038V17.828H91.4288V19.17H90.4608V20.27H91.4288V23.097C91.4288 24.395 92.1658 25.077 93.4528 25.077C93.9478 25.077 94.4428 24.945 94.7728 24.681L94.3878 23.702ZM99.637 18.158C100.154 18.158 100.517 17.784 100.517 17.3C100.517 16.849 100.143 16.508 99.637 16.508C99.131 16.508 98.757 16.871 98.757 17.333C98.757 17.795 99.131 18.158 99.637 18.158ZM98.944 25H100.319V19.126H98.944V25ZM105.27 23.702C105.061 23.867 104.786 23.944 104.5 23.944C103.972 23.944 103.686 23.636 103.686 23.064V20.27H105.259V19.17H103.686V17.828H102.311V19.17H101.343V20.27H102.311V23.097C102.311 24.395 103.048 25.077 104.335 25.077C104.83 25.077 105.325 24.945 105.655 24.681L105.27 23.702ZM112.466 25.077C114.292 25.077 115.601 23.823 115.601 22.063C115.601 20.303 114.292 19.06 112.466 19.06C110.662 19.06 109.342 20.303 109.342 22.063C109.342 23.823 110.662 25.077 112.466 25.077ZM112.466 23.9C111.476 23.9 110.728 23.185 110.728 22.063C110.728 20.941 111.476 20.226 112.466 20.226C113.467 20.226 114.215 20.941 114.215 22.063C114.215 23.185 113.467 23.9 112.466 23.9ZM120.249 19.06C119.391 19.06 118.676 19.346 118.225 19.885V19.126H116.916V25H118.291V22.03C118.291 20.853 118.951 20.259 119.93 20.259C120.81 20.259 121.327 20.765 121.327 21.81V25H122.702V21.634C122.702 19.863 121.657 19.06 120.249 19.06Z" fill="white"/>
<path d="M58.8979 27.3195C55.1805 25.1754 49.214 21.7323 39.9595 16.3886C39.3356 15.9636 38.6177 15.9079 37.9974 16.1244L53.8756 32.4988L58.8979 27.3195Z" fill="#32BBFF"/>
<path d="M37.9975 16.1244C37.8812 16.165 37.7681 16.214 37.6599 16.2732C36.975 16.6553 36.4717 17.3905 36.4717 18.3203V46.6772C36.4717 47.6071 36.9749 48.3423 37.6599 48.7243C37.7679 48.7834 37.881 48.8326 37.9971 48.8734L53.8757 32.4988L37.9975 16.1244Z" fill="#32BBFF"/>
<path d="M53.8755 32.4988L37.997 48.8735C38.6174 49.0916 39.3353 49.0402 39.9595 48.6091C48.9343 43.4264 54.8336 40.0241 58.594 37.8617C58.6987 37.8011 58.8012 37.7418 58.9026 37.6831L53.8755 32.4988Z" fill="#32BBFF"/>
<path d="M36.4717 32.4987V46.6771C36.4717 47.607 36.9749 48.3422 37.6599 48.7242C37.7679 48.7833 37.881 48.8325 37.9971 48.8734L53.8757 32.4987H36.4717Z" fill="#2C9FD9"/>
<path d="M39.9595 16.3885C39.2186 15.884 38.3449 15.8984 37.6599 16.2732L53.6346 32.7472L58.8979 27.3195C55.1806 25.1753 49.2141 21.7323 39.9595 16.3885Z" fill="#29CC5E"/>
<path d="M53.6348 32.2504L37.6599 48.7242C38.3449 49.099 39.2186 49.1207 39.9595 48.6089C48.9344 43.4262 54.8337 40.024 58.5941 37.8616C58.6988 37.801 58.8013 37.7417 58.9027 37.683L53.6348 32.2504Z" fill="#D93F21"/>
<path d="M65.5284 32.4987C65.5284 31.713 65.1439 30.9201 64.382 30.4804C64.382 30.4804 62.9571 29.6605 58.5894 27.1412L53.3942 32.4987L58.5944 37.8616C62.9142 35.3603 64.3819 34.5169 64.3819 34.5169C65.1439 34.0773 65.5284 33.2844 65.5284 32.4987Z" fill="#FFD500"/>
<path d="M64.382 34.517C65.1439 34.0773 65.5284 33.2844 65.5284 32.4987H53.3942L58.5944 37.8615C62.9142 35.3604 64.382 34.517 64.382 34.517Z" fill="#FFAA00"/>
</g>
<defs>
<filter id="filter0_d_1587_33296" x="0" y="0" width="209" height="81" filterUnits="userSpaceOnUse" color-interpolation-filters="sRGB">
<feFlood flood-opacity="0" result="BackgroundImageFix"/>
<feColorMatrix in="SourceAlpha" type="matrix" values="0 0 0 0 0 0 0 0 0 0 0 0 0 0 0 0 0 0 127 0" result="hardAlpha"/>
<feMorphology radius="4" operator="erode" in="SourceAlpha" result="effect1_dropShadow_1587_33296"/>
<feOffset dy="8"/>
<feGaussianBlur stdDeviation="8"/>
<feColorMatrix type="matrix" values="0 0 0 0 0.086 0 0 0 0 0.1316 0 0 0 0 0.2 0 0 0 0.08 0"/>
<feBlend mode="normal" in2="BackgroundImageFix" result="effect1_dropShadow_1587_33296"/>
<feBlend mode="normal" in="SourceGraphic" in2="effect1_dropShadow_1587_33296" result="shape"/>
</filter>
</defs>
</svg>
