<svg width="44" height="34" viewBox="0 0 44 34" fill="none" xmlns="http://www.w3.org/2000/svg">
<path d="M39.875 0.5H9.625C8.82278 0.501127 8.04614 0.782389 7.42924 1.29521C6.81233 1.80802 6.39389 2.52019 6.2462 3.3087C5.56423 3.43691 4.93686 3.76802 4.44619 4.25869C3.95552 4.74936 3.62441 5.37673 3.4962 6.0587C2.70769 6.20639 1.99552 6.62483 1.48271 7.24174C0.969889 7.85864 0.688627 8.63528 0.6875 9.4375V30.0625C0.688524 30.9739 1.05102 31.8476 1.69545 32.492C2.33989 33.1365 3.21363 33.499 4.125 33.5H34.375C35.1772 33.4989 35.9539 33.2176 36.5708 32.7048C37.1877 32.192 37.6061 31.4798 37.7538 30.6913C38.4358 30.5631 39.0631 30.232 39.5538 29.7413C40.0445 29.2506 40.3756 28.6233 40.5038 27.9413C41.2923 27.7936 42.0045 27.3752 42.5173 26.7583C43.0301 26.1414 43.3114 25.3647 43.3125 24.5625V3.9375C43.3115 3.02613 42.949 2.15239 42.3045 1.50795C41.6601 0.863516 40.7864 0.501024 39.875 0.5V0.5ZM2.0625 9.4375C2.06311 8.89068 2.28061 8.36643 2.66727 7.97977C3.05393 7.59311 3.57818 7.37561 4.125 7.375H34.375C34.9218 7.37561 35.4461 7.59311 35.8327 7.97977C36.2194 8.36643 36.4369 8.89068 36.4375 9.4375V10.125H2.0625V9.4375ZM36.4375 30.0625C36.4369 30.6093 36.2194 31.1336 35.8327 31.5202C35.4461 31.9069 34.9218 32.1244 34.375 32.125H4.125C3.57818 32.1244 3.05393 31.9069 2.66727 31.5202C2.28061 31.1336 2.06311 30.6093 2.0625 30.0625V11.5H36.4375V30.0625ZM39.1875 27.3125C39.187 27.7389 39.0545 28.1546 38.8083 28.5027C38.5622 28.8508 38.2143 29.1142 37.8125 29.2567V9.4375C37.8115 8.52613 37.449 7.65239 36.8045 7.00795C36.1601 6.36352 35.2864 6.00102 34.375 6H4.93075C5.07332 5.59819 5.33672 5.25034 5.68481 5.00416C6.03291 4.75798 6.44865 4.62554 6.875 4.625H37.125C37.6718 4.62561 38.1961 4.84311 38.5827 5.22977C38.9694 5.61643 39.1869 6.14068 39.1875 6.6875V27.3125ZM41.9375 24.5625C41.937 24.9889 41.8045 25.4046 41.5583 25.7527C41.3122 26.1008 40.9643 26.3642 40.5625 26.5067V6.6875C40.5615 5.77613 40.199 4.90239 39.5545 4.25795C38.9101 3.61352 38.0364 3.25102 37.125 3.25H7.68075C7.82332 2.84819 8.08672 2.50034 8.43481 2.25416C8.78291 2.00798 9.19865 1.87554 9.625 1.875H39.875C40.4218 1.87561 40.9461 2.09311 41.3327 2.47977C41.7194 2.86643 41.9369 3.39068 41.9375 3.9375V24.5625Z" fill="#0D1930" fill-opacity="0.87"/>
<path d="M4.125 9.4375C4.5047 9.4375 4.8125 9.1297 4.8125 8.75C4.8125 8.3703 4.5047 8.0625 4.125 8.0625C3.7453 8.0625 3.4375 8.3703 3.4375 8.75C3.4375 9.1297 3.7453 9.4375 4.125 9.4375Z" fill="#0D1930" fill-opacity="0.87"/>
<path d="M6.875 9.4375C7.2547 9.4375 7.5625 9.1297 7.5625 8.75C7.5625 8.3703 7.2547 8.0625 6.875 8.0625C6.4953 8.0625 6.1875 8.3703 6.1875 8.75C6.1875 9.1297 6.4953 9.4375 6.875 9.4375Z" fill="#0D1930" fill-opacity="0.87"/>
<path d="M9.625 9.4375C10.0047 9.4375 10.3125 9.1297 10.3125 8.75C10.3125 8.3703 10.0047 8.0625 9.625 8.0625C9.2453 8.0625 8.9375 8.3703 8.9375 8.75C8.9375 9.1297 9.2453 9.4375 9.625 9.4375Z" fill="#0D1930" fill-opacity="0.87"/>
<path d="M11.6875 25.9375H26.8125C26.9948 25.9375 27.1697 25.8651 27.2986 25.7361C27.4276 25.6072 27.5 25.4323 27.5 25.25V14.25C27.5 14.0677 27.4276 13.8928 27.2986 13.7639C27.1697 13.6349 26.9948 13.5625 26.8125 13.5625H11.6875C11.5052 13.5625 11.3303 13.6349 11.2014 13.7639C11.0724 13.8928 11 14.0677 11 14.25V25.25C11 25.4323 11.0724 25.6072 11.2014 25.7361C11.3303 25.8651 11.5052 25.9375 11.6875 25.9375ZM12.375 14.9375H26.125V24.5625H12.375V14.9375Z" fill="#0D1930" fill-opacity="0.87"/>
<path d="M17.5398 21.0376C17.6466 21.0973 17.7674 21.1274 17.8897 21.1248C18.0119 21.1222 18.1313 21.0871 18.2355 21.023L21.5871 18.9605C21.6871 18.899 21.7696 18.8128 21.8269 18.7103C21.8842 18.6079 21.9142 18.4924 21.9142 18.375C21.9142 18.2576 21.8842 18.1421 21.8269 18.0397C21.7696 17.9372 21.6871 17.851 21.5871 17.7895L18.2355 15.727C18.1313 15.6629 18.0119 15.6277 17.8896 15.6251C17.7673 15.6225 17.6465 15.6526 17.5397 15.7122C17.4329 15.7719 17.3439 15.859 17.282 15.9645C17.2201 16.07 17.1875 16.1902 17.1875 16.3125V20.4375C17.1875 20.5598 17.2202 20.6799 17.2821 20.7854C17.3441 20.8909 17.433 20.978 17.5398 21.0376ZM18.5625 17.5428L19.9148 18.375L18.5625 19.2072V17.5428Z" fill="#0D1930" fill-opacity="0.87"/>
<path d="M24.0625 21.8125H22.6875C22.6875 21.6302 22.6151 21.4553 22.4861 21.3264C22.3572 21.1974 22.1823 21.125 22 21.125C21.8177 21.125 21.6428 21.1974 21.5139 21.3264C21.3849 21.4553 21.3125 21.6302 21.3125 21.8125H14.4375C14.2552 21.8125 14.0803 21.8849 13.9514 22.0139C13.8224 22.1428 13.75 22.3177 13.75 22.5C13.75 22.6823 13.8224 22.8572 13.9514 22.9861C14.0803 23.1151 14.2552 23.1875 14.4375 23.1875H21.3125C21.3125 23.3698 21.3849 23.5447 21.5139 23.6736C21.6428 23.8026 21.8177 23.875 22 23.875C22.1823 23.875 22.3572 23.8026 22.4861 23.6736C22.6151 23.5447 22.6875 23.3698 22.6875 23.1875H24.0625C24.2448 23.1875 24.4197 23.1151 24.5486 22.9861C24.6776 22.8572 24.75 22.6823 24.75 22.5C24.75 22.3177 24.6776 22.1428 24.5486 22.0139C24.4197 21.8849 24.2448 21.8125 24.0625 21.8125Z" fill="#0D1930" fill-opacity="0.87"/>
<path d="M11.6875 28H26.8125C26.9948 28 27.1697 27.9276 27.2986 27.7986C27.4276 27.6697 27.5 27.4948 27.5 27.3125C27.5 27.1302 27.4276 26.9553 27.2986 26.8264C27.1697 26.6974 26.9948 26.625 26.8125 26.625H11.6875C11.5052 26.625 11.3303 26.6974 11.2014 26.8264C11.0724 26.9553 11 27.1302 11 27.3125C11 27.4948 11.0724 27.6697 11.2014 27.7986C11.3303 27.9276 11.5052 28 11.6875 28Z" fill="#0D1930" fill-opacity="0.87"/>
<path d="M11.6875 30.0625H21.3125C21.4948 30.0625 21.6697 29.9901 21.7986 29.8611C21.9276 29.7322 22 29.5573 22 29.375C22 29.1927 21.9276 29.0178 21.7986 28.8889C21.6697 28.7599 21.4948 28.6875 21.3125 28.6875H11.6875C11.5052 28.6875 11.3303 28.7599 11.2014 28.8889C11.0724 29.0178 11 29.1927 11 29.375C11 29.5573 11.0724 29.7322 11.2014 29.8611C11.3303 29.9901 11.5052 30.0625 11.6875 30.0625Z" fill="#0D1930" fill-opacity="0.87"/>
<path d="M24.0625 28.6875H23.375C23.1927 28.6875 23.0178 28.7599 22.8889 28.8889C22.7599 29.0178 22.6875 29.1927 22.6875 29.375C22.6875 29.5573 22.7599 29.7322 22.8889 29.8611C23.0178 29.9901 23.1927 30.0625 23.375 30.0625H24.0625C24.2448 30.0625 24.4197 29.9901 24.5486 29.8611C24.6776 29.7322 24.75 29.5573 24.75 29.375C24.75 29.1927 24.6776 29.0178 24.5486 28.8889C24.4197 28.7599 24.2448 28.6875 24.0625 28.6875Z" fill="#0D1930" fill-opacity="0.87"/>
</svg>
