<svg width="20" height="20" viewBox="0 0 20 20" fill="none" xmlns="http://www.w3.org/2000/svg">
<path d="M15.5852 19.0343C15.4316 19.0339 15.2804 18.9962 15.1446 18.9244L10.3152 16.3851L5.48571 18.9244C5.32934 19.0063 5.15318 19.0429 4.97712 19.0301C4.80105 19.0173 4.63207 18.9555 4.48923 18.8518C4.34638 18.748 4.23536 18.6065 4.16868 18.443C4.10199 18.2795 4.0823 18.1007 4.11182 17.9267L5.03375 12.5486L1.12621 8.73961C0.999807 8.61619 0.910423 8.45988 0.868155 8.28835C0.825887 8.11681 0.832419 7.93687 0.887014 7.76885C0.941608 7.60083 1.04209 7.45142 1.17711 7.33749C1.31214 7.22356 1.47632 7.14965 1.65114 7.1241L7.051 6.33956L9.4662 1.44662C9.5532 1.29866 9.67735 1.17599 9.82634 1.09076C9.97533 1.00553 10.144 0.960693 10.3156 0.960693C10.4873 0.960693 10.656 1.00553 10.8049 1.09076C10.9539 1.17599 11.0781 1.29866 11.1651 1.44662L13.5793 6.33956L18.9792 7.1241C19.154 7.14965 19.3182 7.22356 19.4532 7.33749C19.5882 7.45142 19.6887 7.60083 19.7433 7.76885C19.7979 7.93687 19.8044 8.11681 19.7622 8.28835C19.7199 8.45988 19.6305 8.61619 19.5041 8.73961L15.5966 12.5486L16.5195 17.9267C16.5428 18.0626 16.5361 18.202 16.5 18.3351C16.4638 18.4682 16.399 18.5918 16.3102 18.6973C16.2213 18.8028 16.1105 18.8876 15.9854 18.9458C15.8604 19.004 15.7241 19.0342 15.5862 19.0343H15.5852Z" fill="#FA8B0D"/>
</svg>
