<svg width="45" height="44" viewBox="0 0 45 44" fill="none" xmlns="http://www.w3.org/2000/svg">
<g clip-path="url(#clip0_1587_33249)">
<path d="M43.4258 36.2656H42.5664V10.0616C42.5664 8.28455 41.1208 6.83891 39.3438 6.83891H30.034V4.43592C30.034 1.98997 28.044 0 25.598 0H19.402C16.956 0 14.966 1.98997 14.966 4.43592V6.83891H5.65625C3.87923 6.83891 2.43359 8.28455 2.43359 10.0616V36.2656H1.57422C0.981852 36.2656 0.5 36.7475 0.5 37.3398V40.3089C0.5 42.3442 2.15584 44 4.1911 44H40.8089C42.8442 44 44.5 42.3442 44.5 40.3089V37.3398C44.5 36.7475 44.0182 36.2656 43.4258 36.2656ZM30.034 9.87319H30.2357C30.777 9.87319 31.2173 10.3135 31.2173 10.8549C31.2173 11.3961 30.777 11.8364 30.2357 11.8364H30.034V9.87319ZM30.034 13.1254H30.2357C31.5422 13.1264 32.5874 12.0093 32.501 10.7061H38.6992V32.1175H37.0973V28.5682C37.0973 27.354 36.6782 26.1641 35.9172 25.2177C35.1562 24.2712 34.0838 23.6063 32.8975 23.3454L27.1226 22.0769C26.695 21.9836 26.3974 21.5999 26.3973 21.1751V20.0668C28.5755 18.7448 30.034 16.3502 30.034 13.6214V13.1254ZM17.6007 23.4575L18.1542 23.3359C18.6796 23.2204 19.1283 22.9168 19.4388 22.5073L21.5136 24.0318L20.1873 25.3582L17.6007 23.4575ZM20.1531 26.741L19.8189 32.1175H9.19172V28.5682C9.19172 26.6776 10.5323 25.0106 12.3791 24.6044L15.9247 23.8257L19.6322 26.55C19.7901 26.666 19.9709 26.7289 20.1531 26.741ZM25.111 21.2385L22.5 23.1571L19.889 21.2385C19.8917 21.1849 19.894 20.7472 19.8919 20.6895C20.7049 20.9905 21.5836 21.1552 22.5001 21.1552C23.4165 21.1552 24.2951 20.9905 25.1083 20.6895C25.1072 20.7472 25.1079 21.185 25.111 21.2385ZM21.4988 25.8697L22.5 24.8685L23.4968 25.8653L23.8627 32.1175H21.1104L21.4988 25.8697ZM23.4865 24.0319L25.5613 22.5074C25.8718 22.9169 26.3205 23.2205 26.8459 23.336L27.3993 23.4576L24.8127 25.3584L23.4865 24.0319ZM25.368 26.5499L29.0753 23.8256L32.6208 24.6043C34.4677 25.0105 35.8083 26.6775 35.8083 28.5681V32.1175H25.1541L24.8394 26.7412C25.0242 26.7303 25.2078 26.6675 25.368 26.5499ZM16.2551 9.85145C17.1847 9.80057 18.1035 9.66642 18.9943 9.45098C19.3403 9.36727 19.5529 9.01897 19.4692 8.6729C19.3855 8.32691 19.0373 8.11405 18.6912 8.19801C17.8992 8.38956 17.0822 8.50979 16.255 8.55912V4.43592C16.2551 2.70076 17.6668 1.28906 19.402 1.28906H25.598C27.3332 1.28906 28.7449 2.70076 28.7449 4.43592V8.3117C28.212 8.07916 27.7127 7.7788 27.2551 7.41065C26.6228 6.90173 26.0947 6.2859 25.6859 5.58035C25.5421 5.33199 25.2974 5.1627 25.0144 5.11569C24.7318 5.06894 24.4455 5.14989 24.2296 5.33818C23.3659 6.09108 22.412 6.72555 21.3902 7.22631C21.0706 7.38289 20.9384 7.76901 21.0951 8.0887C21.2516 8.40821 21.6376 8.54056 21.9575 8.3838C22.9654 7.88992 23.9068 7.28166 24.7772 6.56382C25.2328 7.26739 25.7931 7.88889 26.4469 8.41491C27.1399 8.97248 27.9111 9.4032 28.7449 9.69873V13.6214C28.7449 17.0648 25.9434 19.8663 22.5 19.8663C19.0566 19.8663 16.2551 17.0648 16.2551 13.6214V9.85145ZM18.6027 20.0667V21.175C18.6022 21.5987 18.3025 21.9841 17.8775 22.0768L12.1024 23.3454C10.9162 23.6062 9.8439 24.2711 9.08275 25.2176C8.32177 26.1641 7.90266 27.3539 7.90266 28.5681V32.1175H6.30078V10.7061H12.499C12.4112 12.005 13.4557 13.1283 14.7643 13.1254H14.966V13.6213C14.966 16.3501 16.4245 18.7448 18.6027 20.0667ZM13.7828 10.8549C13.7828 10.3135 14.2231 9.87319 14.7644 9.87319H14.9661V11.8364H14.7644C14.2231 11.8363 13.7828 11.396 13.7828 10.8549ZM43.2109 40.3089C43.2109 41.6334 42.1334 42.7109 40.8089 42.7109H4.1911C2.86663 42.7109 1.78906 41.6334 1.78906 40.3089V37.5547H18.164V38.6289C18.164 39.4581 18.8387 40.1328 19.6679 40.1328H25.3321C26.1613 40.1328 26.836 39.4581 26.836 38.6289V37.5547H33.0272C33.3832 37.5547 33.6717 37.2662 33.6717 36.9102C33.6717 36.5541 33.3832 36.2656 33.0272 36.2656H3.72266V10.0616C3.72266 8.99542 4.59011 8.12797 5.65625 8.12797H14.966V8.58413H14.7643C14.0574 8.58413 13.4251 8.90897 13.0083 9.41703H6C5.45507 9.41703 5.01172 9.86038 5.01172 10.4053V32.762C5.01172 33.1181 5.30021 33.4066 5.65625 33.4066H39.3438C39.6998 33.4066 39.9883 33.1181 39.9883 32.762V10.4053C39.9883 9.86038 39.5449 9.41703 39 9.41703H31.9917C31.5749 8.90888 30.9426 8.58413 30.2357 8.58413H30.034V8.12797H39.3438C40.4099 8.12797 41.2773 8.99542 41.2773 10.0616V36.2656H36.035C35.6789 36.2656 35.3905 36.5541 35.3905 36.9102C35.3905 37.2662 35.6789 37.5547 36.035 37.5547H43.2109V40.3089ZM19.4531 38.6289V37.5547H25.5469V38.6289C25.5469 38.7474 25.4506 38.8438 25.3321 38.8438H19.6679C19.5494 38.8438 19.4531 38.7474 19.4531 38.6289ZM20.8605 17.6949C21.3514 17.964 21.906 18.1094 22.4643 18.1153C23.178 18.1228 23.7862 17.8887 24.1396 17.6948C24.4517 17.5236 24.5659 17.1318 24.3947 16.8197C24.2235 16.5076 23.8319 16.3934 23.5196 16.5646C23.3009 16.6846 22.9477 16.8263 22.5001 16.8263C22.0579 16.8263 21.6972 16.6836 21.4804 16.5645C21.1681 16.3932 20.7764 16.5077 20.6052 16.8198C20.4341 17.132 20.5484 17.5237 20.8605 17.6949ZM19.1759 13.2054C19.532 13.2054 19.8205 12.9169 19.8205 12.5609V11.2313C19.8205 10.8752 19.532 10.5867 19.1759 10.5867C18.8199 10.5867 18.5314 10.8752 18.5314 11.2313V12.5609C18.5314 12.9169 18.82 13.2054 19.1759 13.2054ZM25.8241 13.2054C26.1801 13.2054 26.4686 12.9169 26.4686 12.5609V11.2313C26.4686 10.8752 26.1801 10.5867 25.8241 10.5867C25.468 10.5867 25.1795 10.8752 25.1795 11.2313V12.5609C25.1795 12.9169 25.468 13.2054 25.8241 13.2054Z" fill="#0D1930" fill-opacity="0.87"/>
</g>
<defs>
<clipPath id="clip0_1587_33249">
<rect width="44" height="44" fill="white" transform="translate(0.5)"/>
</clipPath>
</defs>
</svg>
